<svg width="24" height="17" viewBox="0 0 24 17" fill="none" xmlns="http://www.w3.org/2000/svg">
<path d="M22.3191 0.431008L8.50012 14.249C8.40721 14.3423 8.2968 14.4163 8.17522 14.4668C8.05363 14.5173 7.92327 14.5433 7.79162 14.5433C7.65997 14.5433 7.52961 14.5173 7.40803 14.4668C7.28644 14.4163 7.17603 14.3423 7.08312 14.249L1.73912 8.90001C1.64621 8.80673 1.5358 8.73272 1.41422 8.68222C1.29263 8.63171 1.16228 8.60572 1.03062 8.60572C0.898968 8.60572 0.768609 8.63171 0.647027 8.68222C0.525444 8.73272 0.415031 8.80673 0.322121 8.90001C0.228844 8.99292 0.154832 9.10333 0.10433 9.22491C0.0538287 9.3465 0.027832 9.47685 0.027832 9.60851C0.027832 9.74016 0.0538287 9.87052 0.10433 9.9921C0.154832 10.1137 0.228844 10.2241 0.322121 10.317L5.66812 15.662C6.23207 16.2249 6.99632 16.5411 7.79312 16.5411C8.58992 16.5411 9.35417 16.2249 9.91812 15.662L23.7361 1.84701C23.8292 1.75412 23.9031 1.64377 23.9535 1.52228C24.004 1.40079 24.0299 1.27054 24.0299 1.13901C24.0299 1.00747 24.004 0.877231 23.9535 0.755741C23.9031 0.63425 23.8292 0.5239 23.7361 0.431008C23.6432 0.337732 23.5328 0.263719 23.4112 0.213217C23.2896 0.162716 23.1593 0.136719 23.0276 0.136719C22.896 0.136719 22.7656 0.162716 22.644 0.213217C22.5224 0.263719 22.412 0.337732 22.3191 0.431008Z" fill="white"/>
</svg>
